<svg id="svg" version="1.1" xmlns="http://www.w3.org/2000/svg" xmlns:xlink="http://www.w3.org/1999/xlink" width="400" height="300.6060606060606" viewBox="0, 0, 400,300.6060606060606"><g id="svgg"><path id="path0" d="M202.406 31.891 C 175.023 35.188,155.948 55.139,152.817 83.759 C 152.522 86.452,152.159 87.544,149.265 94.436 C 146.597 100.791,140.858 114.116,137.060 122.772 C 135.992 125.207,135.190 127.271,135.279 127.359 C 135.367 127.447,139.001 127.519,143.356 127.519 L 151.273 127.519 151.351 144.586 L 151.429 161.654 189.248 161.730 C 212.254 161.777,227.068 161.698,227.068 161.529 C 227.068 161.266,224.991 153.792,223.697 149.398 L 223.099 147.368 194.407 147.368 L 165.714 147.368 165.661 134.511 C 165.615 123.705,165.558 118.882,165.433 115.414 C 165.415 114.937,164.991 114.887,160.902 114.887 C 157.768 114.887,156.391 114.784,156.391 114.550 C 156.391 114.163,159.945 105.281,163.656 96.391 C 167.522 87.132,168.069 85.559,168.263 83.158 C 170.898 50.476,206.179 34.875,232.491 54.757 C 249.841 67.867,252.871 94.263,238.997 111.429 L 236.809 114.135 237.919 118.045 C 238.530 120.195,240.207 126.015,241.646 130.977 C 245.850 145.470,247.519 151.259,248.279 153.985 C 248.671 155.391,249.318 157.624,249.717 158.947 L 250.443 161.353 257.402 161.434 C 261.390 161.480,264.361 161.399,264.361 161.244 C 264.361 161.017,262.389 153.582,259.803 144.060 C 259.466 142.820,258.992 141.060,258.750 140.150 C 258.508 139.241,257.966 137.211,257.546 135.639 C 257.125 134.068,256.401 131.361,255.937 129.624 C 254.719 125.070,253.622 120.999,253.100 119.098 L 252.646 117.444 253.670 115.902 C 264.667 99.339,264.722 73.329,253.793 57.062 C 241.906 39.368,221.860 29.549,202.406 31.891 M204.500 50.259 C 186.746 51.656,174.049 64.923,171.863 84.361 C 171.751 85.353,171.392 86.842,171.065 87.669 C 170.089 90.137,170.026 90.301,168.418 94.631 C 167.567 96.922,166.557 99.609,166.173 100.602 C 165.790 101.594,164.979 103.827,164.372 105.564 C 163.765 107.301,163.075 109.232,162.837 109.856 C 162.600 110.479,162.406 111.055,162.406 111.134 C 162.406 111.213,164.030 111.278,166.015 111.278 L 169.624 111.278 169.624 127.368 L 169.624 143.459 195.789 143.459 C 210.180 143.459,221.955 143.393,221.955 143.313 C 221.955 143.233,221.535 141.643,221.021 139.779 C 220.507 137.916,219.700 134.981,219.227 133.259 C 218.754 131.536,218.245 130.004,218.095 129.855 C 217.941 129.700,210.488 129.559,200.867 129.528 L 183.910 129.474 183.832 115.113 L 183.754 100.752 182.403 100.752 C 180.871 100.752,180.786 100.557,181.542 98.759 C 183.348 94.458,185.951 86.364,186.461 83.459 C 188.530 71.680,196.530 64.847,208.271 64.829 C 230.136 64.797,237.395 94.062,218.261 105.103 C 217.269 105.676,216.865 106.085,216.957 106.425 C 218.516 112.162,221.783 123.813,223.461 129.624 C 225.986 138.367,229.985 152.606,231.443 158.045 C 232.654 162.568,231.713 162.105,239.710 162.105 C 245.036 162.105,246.616 162.019,246.613 161.729 C 246.611 161.523,246.401 160.677,246.146 159.850 C 245.891 159.023,244.936 155.774,244.025 152.632 C 243.113 149.489,241.890 145.293,241.306 143.308 C 240.722 141.323,239.910 138.549,239.501 137.143 C 239.092 135.737,238.280 132.962,237.696 130.977 C 236.375 126.488,235.332 122.912,233.686 117.232 L 232.405 112.810 234.128 110.916 C 256.318 86.527,237.340 47.674,204.500 50.259 M204.361 72.605 C 192.231 75.615,189.905 92.155,200.719 98.493 C 208.770 103.211,219.131 98.836,221.506 89.716 C 224.145 79.584,214.605 70.062,204.361 72.605 M95.200 179.260 C 82.681 180.917,75.698 184.776,68.825 193.835 C 54.383 212.867,55.739 243.157,71.310 249.341 C 79.571 252.621,95.361 252.596,104.348 249.288 C 114.905 245.402,124.945 234.830,124.450 228.123 L 124.361 226.917 118.496 226.930 C 115.271 226.938,110.714 226.971,108.370 227.006 L 104.108 227.068 103.901 228.045 C 102.438 234.971,92.144 239.688,85.103 236.659 C 75.546 232.548,79.415 204.162,90.824 194.692 C 97.903 188.816,109.474 191.624,109.474 199.218 L 109.474 201.203 120.000 201.203 C 125.789 201.203,130.526 201.145,130.526 201.074 C 130.526 201.004,130.666 199.944,130.836 198.719 C 131.278 195.540,130.800 191.741,129.647 189.278 C 126.079 181.653,110.765 177.199,95.200 179.260 M142.898 182.481 C 142.722 183.267,142.169 185.940,141.669 188.421 C 141.169 190.902,140.415 194.556,139.993 196.541 C 139.571 198.526,139.035 201.165,138.802 202.406 C 138.569 203.647,138.042 206.286,137.630 208.271 C 136.296 214.710,132.392 233.695,131.292 239.098 C 130.702 241.992,130.029 245.173,129.798 246.165 C 129.566 247.158,129.291 248.477,129.186 249.098 L 128.995 250.226 137.863 250.226 C 142.741 250.226,146.804 250.108,146.893 249.964 C 146.982 249.820,149.365 238.152,152.189 224.034 C 155.013 209.916,157.381 198.308,157.452 198.238 C 157.649 198.040,157.741 198.384,159.873 207.218 C 160.970 211.767,162.587 218.466,163.467 222.105 C 164.346 225.744,165.555 230.752,166.154 233.233 C 168.433 242.683,169.656 247.714,169.975 248.950 L 170.305 250.232 183.875 250.153 L 197.444 250.075 199.133 242.406 C 200.062 238.188,201.663 230.812,202.690 226.015 C 203.718 221.218,204.809 216.143,205.116 214.737 C 205.422 213.331,206.226 209.609,206.902 206.466 C 207.578 203.323,208.326 199.872,208.565 198.797 C 208.803 197.722,209.350 195.218,209.779 193.233 C 210.208 191.248,210.958 187.819,211.445 185.614 C 211.932 183.408,212.331 181.479,212.331 181.328 C 212.331 181.168,208.565 181.053,203.308 181.053 C 198.346 181.053,194.286 181.117,194.286 181.195 C 194.286 181.348,192.966 187.214,190.969 195.940 C 189.867 200.758,188.992 204.629,187.061 213.233 C 186.745 214.639,185.867 218.496,185.109 221.805 C 184.351 225.113,183.652 228.259,183.555 228.797 C 183.352 229.929,182.939 230.076,182.711 229.098 C 182.246 227.093,177.486 207.335,176.100 201.654 C 175.212 198.015,173.852 192.398,173.077 189.173 C 172.302 185.947,171.542 182.801,171.387 182.180 L 171.105 181.053 157.161 181.053 L 143.218 181.053 142.898 182.481 M223.070 184.723 C 222.636 186.757,221.729 191.128,221.054 194.436 C 220.378 197.744,219.633 201.331,219.397 202.406 C 219.161 203.481,218.150 208.353,217.151 213.233 C 216.151 218.113,215.071 223.323,214.750 224.812 C 214.429 226.301,213.541 230.564,212.776 234.286 C 212.011 238.008,210.988 242.951,210.504 245.271 C 210.020 247.592,209.624 249.656,209.624 249.858 C 209.624 250.295,228.728 250.402,228.997 249.966 C 229.085 249.823,229.781 246.879,230.542 243.425 C 231.304 239.970,232.458 234.742,233.107 231.808 C 233.755 228.873,234.286 226.416,234.286 226.346 C 234.286 226.276,238.921 226.159,244.586 226.085 C 266.996 225.792,277.608 219.404,280.434 204.508 C 282.367 194.318,280.077 187.731,273.483 184.516 C 266.953 181.331,266.423 181.272,243.583 181.139 L 223.858 181.025 223.070 184.723 M255.497 195.885 C 261.003 197.667,261.220 204.623,255.919 209.421 C 252.939 212.118,251.870 212.403,244.135 212.563 L 237.594 212.698 237.594 211.899 C 237.594 211.460,237.796 210.261,238.044 209.235 C 238.291 208.208,238.974 205.135,239.562 202.406 C 240.150 199.677,240.768 196.923,240.936 196.286 L 241.242 195.129 247.614 195.262 C 252.380 195.362,254.366 195.519,255.497 195.885 M305.865 200.026 C 292.041 201.538,282.711 212.872,281.228 229.956 C 279.966 244.482,285.298 251.590,297.444 251.572 C 304.297 251.562,306.890 250.584,311.388 246.316 C 313.486 244.325,314.042 243.926,313.900 244.511 C 313.800 244.925,313.429 246.684,313.076 248.421 C 312.723 250.158,311.892 254.218,311.230 257.444 C 310.568 260.669,309.778 264.523,309.473 266.007 C 309.169 267.491,308.985 268.811,309.064 268.939 C 309.304 269.327,326.547 269.228,326.789 268.837 C 327.069 268.383,327.243 267.628,329.314 257.895 C 330.299 253.263,331.386 248.188,331.730 246.617 C 332.458 243.291,335.077 231.051,338.036 217.143 C 340.119 207.354,340.943 203.620,341.239 202.627 C 341.388 202.127,340.872 202.101,332.277 202.176 L 323.158 202.256 322.439 205.038 C 321.719 207.824,321.404 208.326,321.059 207.237 C 320.739 206.229,315.898 201.899,314.183 201.088 C 311.303 199.726,310.061 199.567,305.865 200.026 M315.639 212.277 C 321.238 216.068,318.248 234.935,311.414 238.940 C 302.865 243.950,298.175 238.537,300.609 226.466 C 303.079 214.220,309.523 208.136,315.639 212.277 " stroke="none" fill="#000000" fill-rule="evenodd"></path></g></svg>