<svg xmlns="http://www.w3.org/2000/svg" xmlns:xlink="http://www.w3.org/1999/xlink" width="1920" zoomAndPan="magnify" viewBox="0 0 1440 959.999988" height="1280" preserveAspectRatio="xMidYMid meet" version="1.0"><defs><clipPath id="c7a8b999ce"><path d="M 583.425781 762.339844 L 869.925781 762.339844 L 869.925781 960 L 583.425781 960 Z M 583.425781 762.339844 " clip-rule="nonzero"/></clipPath><clipPath id="e6480c5b83"><path d="M 1033 733.695312 L 1066 733.695312 L 1066 779 L 1033 779 Z M 1033 733.695312 " clip-rule="nonzero"/></clipPath><clipPath id="7c46930da5"><path d="M 901.550781 953 L 1197.050781 953 L 1197.050781 960 L 901.550781 960 Z M 901.550781 953 " clip-rule="nonzero"/></clipPath><clipPath id="c365887c9b"><path d="M 236.625 754.492188 L 447.375 754.492188 L 447.375 960 L 236.625 960 Z M 236.625 754.492188 " clip-rule="nonzero"/></clipPath><clipPath id="aef5be12a7"><path d="M 305.949219 843.753906 L 648.699219 843.753906 L 648.699219 960 L 305.949219 960 Z M 305.949219 843.753906 " clip-rule="nonzero"/></clipPath><clipPath id="bc3afefee4"><path d="M 338 882 L 648.699219 882 L 648.699219 960 L 338 960 Z M 338 882 " clip-rule="nonzero"/></clipPath><clipPath id="7c9511ce2e"><path d="M 844.382812 802 L 1007.882812 802 L 1007.882812 960 L 844.382812 960 Z M 844.382812 802 " clip-rule="nonzero"/></clipPath></defs><g clip-path="url(#c7a8b999ce)"><path fill="#162746" d="M 859.042969 973.902344 L 840.183594 835.5625 C 839.515625 830.683594 837.164062 826.148438 833.5625 822.789062 L 828.792969 818.351562 C 826.578125 816.289062 825.042969 813.640625 824.347656 810.695312 L 815.574219 773.359375 C 814.050781 766.882812 808.339844 762.355469 801.683594 762.355469 L 799.445312 762.355469 C 793.117188 762.355469 787.480469 766.601562 785.730469 772.675781 L 777.195312 802.320312 C 776.417969 805.015625 774.699219 807.332031 772.347656 808.855469 L 770.757812 809.878906 C 767.011719 812.304688 764.332031 816.015625 763.203125 820.328125 L 747.707031 879.757812 L 729.769531 879.757812 L 729.769531 843.855469 L 706.503906 843.855469 L 706.503906 855.597656 L 663.179688 855.597656 L 663.179688 830.503906 L 640.890625 830.503906 L 640.890625 908.109375 L 629.023438 908.109375 L 629.023438 897.484375 L 604.769531 897.484375 L 604.769531 940.164062 C 601.179688 942.125 598.710938 945.894531 598.710938 950.265625 L 598.710938 958.128906 C 594.46875 959.6875 591.421875 963.730469 591.421875 968.503906 L 591.421875 974.46875 C 586.933594 975.933594 583.660156 980.105469 583.660156 985.070312 L 583.660156 998.628906 L 869.6875 998.628906 L 869.6875 984.835938 C 869.6875 978.902344 864.9375 974.082031 859.042969 973.902344 Z M 769.195312 821.890625 C 769.929688 819.078125 771.679688 816.65625 774.121094 815.078125 L 774.234375 815.003906 L 771.925781 824.4375 L 777.941406 825.910156 L 784.117188 800.652344 L 791.679688 774.386719 C 792.671875 770.949219 795.863281 768.546875 799.445312 768.546875 L 801.683594 768.546875 C 805.449219 768.546875 808.683594 771.109375 809.546875 774.773438 L 817.164062 807.175781 L 823.570312 850.996094 L 829.695312 850.101562 L 825.894531 824.109375 L 829.339844 827.316406 C 831.902344 829.703125 833.570312 832.925781 834.042969 836.394531 L 852.785156 973.867188 L 848.285156 973.867188 L 848.285156 968.503906 C 848.285156 962.390625 843.3125 957.417969 837.195312 957.417969 L 833.707031 957.417969 L 833.707031 950.265625 C 833.707031 943.890625 828.519531 938.710938 822.144531 938.710938 L 810.277344 938.710938 C 809.382812 934.351562 806.628906 930.667969 802.890625 928.503906 L 802.890625 879.757812 L 754.105469 879.757812 Z M 604.902344 950.265625 C 604.902344 947.304688 607.3125 944.898438 610.273438 944.898438 L 822.148438 944.898438 C 825.109375 944.898438 827.519531 947.304688 827.519531 950.265625 L 827.519531 957.417969 L 604.902344 957.417969 Z M 802.890625 936.8125 C 803.277344 937.40625 803.621094 938.03125 803.863281 938.710938 L 701.261719 938.710938 L 701.261719 918.265625 L 772.804688 918.265625 C 774.921875 918.265625 776.644531 919.992188 776.644531 922.109375 C 776.644531 927.902344 781.363281 932.617188 787.160156 932.617188 L 795.210938 932.617188 C 795.71875 932.617188 796.214844 932.660156 796.699219 932.742188 C 799.292969 933.164062 801.507812 934.691406 802.890625 936.8125 Z M 746.09375 885.945312 L 796.699219 885.945312 L 796.699219 894.503906 L 767.644531 894.503906 L 767.644531 900.691406 L 796.699219 900.691406 L 796.699219 926.503906 C 796.210938 926.457031 795.714844 926.429688 795.210938 926.429688 L 787.15625 926.429688 C 784.777344 926.429688 782.835938 924.488281 782.835938 922.109375 C 782.835938 916.578125 778.335938 912.078125 772.800781 912.078125 L 701.261719 912.078125 L 701.261719 897.484375 L 695.605469 897.484375 L 695.605469 885.945312 Z M 647.082031 836.691406 L 656.988281 836.691406 L 656.988281 861.785156 L 712.699219 861.785156 L 712.699219 850.042969 L 723.578125 850.042969 L 723.578125 879.757812 L 689.414062 879.757812 L 689.414062 897.484375 L 677.011719 897.484375 L 677.011719 908.109375 L 665.140625 908.109375 L 665.140625 897.484375 L 647.082031 897.484375 Z M 610.964844 903.671875 L 622.832031 903.671875 L 622.832031 914.300781 L 647.082031 914.300781 L 647.082031 903.671875 L 658.949219 903.671875 L 658.949219 914.300781 L 683.203125 914.300781 L 683.203125 903.671875 L 695.070312 903.671875 L 695.070312 938.710938 L 610.964844 938.710938 Z M 597.613281 968.503906 C 597.613281 965.804688 599.8125 963.605469 602.511719 963.605469 L 837.199219 963.605469 C 839.898438 963.605469 842.097656 965.804688 842.097656 968.503906 L 842.097656 973.871094 L 597.613281 973.871094 Z M 863.496094 992.4375 L 589.851562 992.4375 L 589.851562 985.074219 C 589.851562 982.308594 592.105469 980.058594 594.871094 980.058594 L 858.714844 980.058594 C 859.125 980.058594 859.519531 980.128906 859.902344 980.226562 C 861.964844 980.757812 863.496094 982.613281 863.496094 984.839844 Z M 863.496094 992.4375 " fill-opacity="1" fill-rule="nonzero"/></g><path fill="#162746" d="M 627.128906 922.136719 L 632.480469 922.136719 L 632.480469 927.488281 L 627.128906 927.488281 Z M 627.128906 922.136719 " fill-opacity="1" fill-rule="nonzero"/><path fill="#162746" d="M 650.339844 922.136719 L 655.695312 922.136719 L 655.695312 927.488281 L 650.339844 927.488281 Z M 650.339844 922.136719 " fill-opacity="1" fill-rule="nonzero"/><path fill="#162746" d="M 673.550781 922.136719 L 678.90625 922.136719 L 678.90625 927.488281 L 673.550781 927.488281 Z M 673.550781 922.136719 " fill-opacity="1" fill-rule="nonzero"/><path fill="#162746" d="M 659.445312 869.035156 L 664.796875 869.035156 L 664.796875 874.386719 L 659.445312 874.386719 Z M 659.445312 869.035156 " fill-opacity="1" fill-rule="nonzero"/><path fill="#162746" d="M 682.65625 869.035156 L 688.007812 869.035156 L 688.007812 874.386719 L 682.65625 874.386719 Z M 682.65625 869.035156 " fill-opacity="1" fill-rule="nonzero"/><path fill="#162746" d="M 705.867188 869.035156 L 711.21875 869.035156 L 711.21875 874.386719 L 705.867188 874.386719 Z M 705.867188 869.035156 " fill-opacity="1" fill-rule="nonzero"/><path fill="#162746" d="M 713.535156 894.921875 L 718.886719 894.921875 L 718.886719 900.273438 L 713.535156 900.273438 Z M 713.535156 894.921875 " fill-opacity="1" fill-rule="nonzero"/><path fill="#162746" d="M 754.515625 900.691406 L 754.515625 894.503906 L 743.230469 894.503906 L 743.230469 900.691406 Z M 754.515625 900.691406 " fill-opacity="1" fill-rule="nonzero"/><path fill="#162746" d="M 1049.300781 991.117188 C 1048.925781 991.117188 1048.550781 991.058594 1048.195312 990.929688 L 1023.066406 982.144531 C 1021.65625 981.648438 1020.738281 980.277344 1020.832031 978.785156 L 1033.105469 774.550781 C 1033.214844 772.785156 1034.679688 771.40625 1036.441406 771.40625 L 1062.15625 771.40625 C 1063.921875 771.40625 1065.382812 772.785156 1065.492188 774.550781 L 1077.765625 978.785156 C 1077.851562 980.277344 1076.945312 981.648438 1075.53125 982.144531 L 1050.402344 990.929688 C 1050.046875 991.058594 1049.671875 991.117188 1049.300781 991.117188 Z M 1027.65625 976.664062 L 1049.300781 984.226562 L 1070.941406 976.664062 L 1059.007812 778.101562 L 1039.585938 778.101562 Z M 1027.65625 976.664062 " fill-opacity="1" fill-rule="nonzero"/><g clip-path="url(#e6480c5b83)"><path fill="#162746" d="M 1062.15625 778.101562 C 1060.765625 778.101562 1059.46875 777.226562 1058.992188 775.839844 L 1049.300781 747.492188 L 1039.605469 775.835938 C 1039.011719 777.582031 1037.105469 778.519531 1035.359375 777.914062 C 1033.613281 777.320312 1032.679688 775.414062 1033.28125 773.667969 L 1046.136719 736.078125 C 1046.597656 734.726562 1047.867188 733.816406 1049.300781 733.816406 C 1050.730469 733.816406 1052 734.726562 1052.460938 736.078125 L 1065.316406 773.667969 C 1065.914062 775.414062 1064.984375 777.320312 1063.238281 777.914062 C 1062.878906 778.042969 1062.515625 778.101562 1062.15625 778.101562 Z M 1062.15625 778.101562 " fill-opacity="1" fill-rule="nonzero"/></g><path fill="#162746" d="M 1049.300781 991.117188 C 1047.453125 991.117188 1045.957031 989.617188 1045.957031 987.773438 L 1045.957031 774.757812 C 1045.957031 772.910156 1047.453125 771.414062 1049.300781 771.414062 C 1051.144531 771.414062 1052.640625 772.910156 1052.640625 774.757812 L 1052.640625 987.777344 C 1052.640625 989.625 1051.144531 991.117188 1049.300781 991.117188 Z M 1049.300781 991.117188 " fill-opacity="1" fill-rule="nonzero"/><g clip-path="url(#7c46930da5)"><path fill="#162746" d="M 1049.300781 1020.074219 C 1010.503906 1020.074219 973.992188 1016.902344 946.503906 1011.136719 C 916.671875 1004.878906 901.550781 996.570312 901.550781 986.445312 C 901.550781 977.28125 914.058594 969.574219 938.71875 963.523438 C 961.015625 958.058594 991.777344 954.40625 1025.316406 953.234375 C 1027.164062 953.167969 1028.707031 954.613281 1028.773438 956.457031 C 1028.839844 958.304688 1027.398438 959.851562 1025.550781 959.917969 C 945.519531 962.714844 908.234375 977.402344 908.234375 986.445312 C 908.234375 990.976562 918.617188 998.449219 947.875 1004.585938 C 974.929688 1010.257812 1010.949219 1013.382812 1049.300781 1013.382812 C 1087.648438 1013.382812 1123.667969 1010.257812 1150.726562 1004.585938 C 1179.980469 998.449219 1190.363281 990.984375 1190.363281 986.445312 C 1190.363281 977.402344 1153.078125 962.707031 1073.046875 959.925781 C 1071.199219 959.859375 1069.757812 958.3125 1069.824219 956.464844 C 1069.890625 954.617188 1071.429688 953.1875 1073.28125 953.242188 C 1106.828125 954.410156 1137.582031 958.066406 1159.882812 963.53125 C 1184.546875 969.578125 1197.054688 977.285156 1197.054688 986.453125 C 1197.054688 996.578125 1181.933594 1004.886719 1152.101562 1011.140625 C 1124.605469 1016.894531 1088.09375 1020.074219 1049.300781 1020.074219 Z M 1049.300781 1020.074219 " fill-opacity="1" fill-rule="nonzero"/></g><path fill="#162746" d="M 289.726562 798.394531 L 279.050781 801.84375 C 278.484375 802.027344 278.164062 802.644531 278.347656 803.214844 C 278.53125 803.785156 279.148438 804.105469 279.71875 803.921875 L 290.398438 800.472656 C 290.96875 800.289062 291.28125 799.671875 291.097656 799.097656 C 290.914062 798.527344 290.296875 798.210938 289.726562 798.394531 " fill-opacity="1" fill-rule="nonzero"/><g clip-path="url(#c365887c9b)"><path fill="#162746" d="M 415.140625 809.375 C 414.992188 809.554688 414.792969 809.675781 414.566406 809.722656 L 405.398438 825.046875 C 405.21875 825.34375 404.902344 825.527344 404.550781 825.527344 C 404.550781 825.527344 387.363281 825.4375 387.363281 825.4375 L 375.660156 830.703125 C 375.53125 830.761719 375.417969 830.789062 375.277344 830.789062 C 375.09375 830.789062 374.953125 830.734375 374.789062 830.632812 C 374.511719 830.449219 374.4375 830.132812 374.4375 829.800781 L 374.4375 792.894531 C 374.4375 792.589844 374.480469 792.300781 374.714844 792.117188 C 374.894531 791.976562 375.011719 791.90625 375.230469 791.90625 C 375.308594 791.90625 375.386719 791.914062 375.460938 791.929688 C 383.785156 793.9375 390.507812 796.242188 395.4375 798.785156 C 395.453125 798.785156 404.464844 802.179688 412.570312 802.234375 C 413 802.234375 413.371094 802.511719 413.507812 802.917969 L 415.3125 808.441406 C 415.417969 808.757812 415.351562 809.113281 415.140625 809.375 Z M 367.824219 907.105469 C 367.824219 907.324219 367.753906 907.539062 367.632812 907.71875 L 366.132812 909.933594 C 366.121094 910.242188 365.984375 910.535156 365.746094 910.738281 C 365.550781 910.902344 365.316406 910.988281 365.0625 910.988281 C 365 910.988281 364.960938 910.984375 364.898438 910.972656 L 326.414062 903.925781 C 326.058594 903.859375 325.878906 903.625 325.730469 903.308594 L 324.742188 902.253906 C 324.503906 902.046875 324.8125 901.75 324.8125 901.429688 L 324.8125 893.425781 L 322.371094 891.957031 C 322.085938 891.753906 321.507812 891.425781 321.507812 891.074219 L 321.507812 875.6875 L 318.652344 874.464844 C 318.238281 874.300781 318.199219 873.898438 318.199219 873.449219 L 318.199219 791.574219 C 321.507812 790.285156 327.464844 789.609375 329.851562 789.609375 C 330.308594 789.609375 330.480469 789.898438 330.636719 790.332031 C 331.605469 793 334.261719 797.613281 341.183594 798.503906 C 341.25 798.46875 348.765625 797.570312 352.179688 789.871094 C 352.359375 789.472656 352.742188 789.226562 353.164062 789.226562 C 353.21875 789.226562 353.253906 789.226562 353.308594 789.238281 C 354.046875 789.347656 361.207031 790.3125 367.824219 792.171875 Z M 364.511719 971.136719 L 357.898438 971.136719 L 357.898438 926.492188 C 361.207031 927.351562 364.511719 928.089844 364.511719 928.617188 Z M 347.972656 971.136719 L 341.355469 971.136719 L 341.355469 922.441406 C 341.355469 923.152344 344.664062 923.867188 347.972656 924.558594 Z M 334.738281 971.136719 L 328.125 971.136719 L 328.125 917.925781 C 328.125 918.519531 331.429688 919.238281 334.738281 920.023438 Z M 334.738281 774.738281 L 334.738281 768.507812 C 334.738281 767.878906 334.757812 767.347656 335.378906 767.273438 C 336.507812 767.140625 339.335938 765.699219 339.957031 763.71875 C 340.117188 763.214844 340.347656 762.183594 340.875 762.183594 L 340.910156 762.183594 C 341.425781 762.183594 341.886719 763.167969 342.070312 763.652344 C 342.109375 763.746094 342.925781 766.671875 347.152344 767.125 C 347.78125 767.191406 347.972656 768.058594 347.972656 768.695312 L 347.972656 774.738281 C 347.972656 775.425781 347.988281 775.449219 347.304688 775.449219 L 343.546875 775.449219 C 343.296875 775.449219 343.046875 775.640625 342.84375 775.496094 C 342.492188 775.253906 341.785156 774.976562 341 774.976562 C 340.453125 774.976562 339.949219 774.972656 339.453125 775.375 C 339.230469 775.550781 338.957031 775.449219 338.671875 775.449219 L 335.0625 775.449219 C 334.378906 775.449219 334.738281 775.425781 334.738281 774.738281 Z M 311.582031 829.453125 C 311.582031 829.777344 311.078125 830.082031 310.8125 830.269531 C 310.640625 830.394531 310.09375 830.457031 309.890625 830.457031 C 309.78125 830.457031 309.664062 830.4375 309.554688 830.402344 L 297.210938 826.015625 C 297.210938 826.015625 283.992188 827.195312 283.960938 827.195312 C 283.636719 827.195312 283.332031 827.039062 283.140625 826.769531 L 271.242188 809.878906 C 271.007812 809.542969 271 809.105469 271.222656 808.757812 L 276.21875 800.871094 C 276.347656 800.671875 276.558594 800.523438 276.78125 800.453125 C 281.5 798.933594 297.859375 793.769531 309.753906 791.011719 C 309.828125 790.996094 309.988281 790.988281 310.0625 790.988281 C 310.289062 790.988281 310.679688 791.0625 310.859375 791.207031 C 311.101562 791.398438 311.582031 791.6875 311.582031 791.996094 Z M 446.574219 801.160156 C 446.363281 800.8125 446 800.585938 445.59375 800.558594 L 438.585938 800.054688 L 438.34375 799.015625 C 438.222656 798.5 437.78125 798.117188 437.25 798.0625 C 437.25 798.0625 424.042969 796.8125 424.003906 796.8125 C 423.710938 796.8125 423.417969 796.917969 423.191406 797.113281 L 420.097656 799.804688 C 419.195312 799.882812 418.273438 799.917969 417.347656 799.917969 C 407.105469 799.917969 395.621094 795.585938 395.601562 795.585938 C 381.644531 788.386719 360.058594 784.660156 355.359375 783.914062 L 352.34375 766.589844 L 352.160156 765.40625 C 351.949219 763.992188 351.734375 762.53125 351.082031 761.089844 C 350.347656 759.464844 349.234375 758.023438 347.867188 756.914062 C 345.929688 755.351562 343.511719 754.492188 341.050781 754.492188 C 337.347656 754.492188 333.789062 756.484375 331.765625 759.6875 C 331 760.890625 330.53125 762.101562 330.289062 763.5 L 326.652344 784.367188 C 314.390625 784.910156 275.714844 798.667969 272.269531 798.667969 L 259.738281 798.667969 L 258.632812 797.421875 C 258.398438 797.1875 258.085938 796.988281 257.753906 796.988281 C 257.734375 796.988281 245.132812 797.527344 245.132812 797.527344 C 244.792969 797.539062 244.472656 797.679688 244.25 797.941406 C 244.027344 798.199219 243.921875 798.53125 243.953125 798.875 L 244.050781 799.738281 L 239.945312 800 C 238.554688 800.175781 237.457031 801.027344 236.949219 802.339844 C 236.238281 804.160156 236.726562 806.601562 238.132812 808.273438 C 239.855469 810.328125 242.578125 810.550781 243.671875 810.550781 C 243.980469 810.550781 244.195312 810.535156 244.214844 810.53125 L 266.960938 810.199219 L 281.296875 830.539062 C 281.53125 830.871094 281.910156 831.066406 282.3125 831.066406 C 282.347656 831.066406 299.175781 829.609375 299.175781 829.609375 L 314.886719 835.011719 L 314.886719 879.746094 C 314.886719 880.257812 314.703125 880.714844 315.179688 880.902344 L 318.199219 882.292969 L 318.199219 899.828125 C 318.199219 900.230469 318.625 900.605469 318.953125 900.839844 L 321.507812 902.507812 L 321.507812 911.625 C 321.507812 911.988281 320.8125 912.332031 321.085938 912.570312 L 321.507812 913.667969 L 321.507812 974.449219 L 367.824219 974.449219 L 367.824219 921.316406 L 370.222656 918.796875 C 370.363281 918.589844 371.128906 918.347656 371.128906 918.097656 L 371.128906 835.507812 L 385.496094 829.027344 C 385.496094 829.027344 407.050781 829.136719 407.054688 829.136719 C 407.488281 829.136719 407.882812 828.910156 408.105469 828.535156 L 419.574219 809.359375 L 421.296875 809.542969 L 422.007812 810.890625 C 422.21875 811.296875 422.644531 811.554688 423.101562 811.554688 C 423.109375 811.554688 439.292969 811.210938 439.292969 811.210938 C 439.96875 811.199219 440.601562 810.644531 440.601562 809.96875 L 440.601562 809.890625 C 443.914062 809.25 446.050781 807.960938 446.960938 806.046875 C 448.117188 803.621094 446.632812 801.257812 446.574219 801.160156 " fill-opacity="1" fill-rule="nonzero"/></g><path fill="#162746" d="M 323.160156 792.773438 C 322.410156 792.773438 321.507812 793.386719 321.507812 794.140625 L 321.507812 820.515625 C 321.507812 821.265625 322.410156 821.882812 323.160156 821.882812 C 323.910156 821.882812 324.8125 821.265625 324.8125 820.515625 L 324.8125 794.140625 C 324.8125 793.386719 323.910156 792.773438 323.160156 792.773438 " fill-opacity="1" fill-rule="nonzero"/><path fill="#162746" d="M 389.585938 799.039062 L 379.117188 795.515625 C 378.5625 795.328125 377.949219 795.632812 377.761719 796.191406 C 377.574219 796.753906 377.878906 797.363281 378.4375 797.554688 L 388.902344 801.074219 C 389.464844 801.265625 390.074219 800.957031 390.261719 800.398438 C 390.449219 799.839844 390.144531 799.226562 389.585938 799.039062 " fill-opacity="1" fill-rule="nonzero"/><g clip-path="url(#aef5be12a7)"><path fill="#162746" d="M 644.574219 993.136719 L 640.4375 987.332031 L 636.289062 981.539062 L 632.121094 975.75 L 627.945312 969.976562 L 623.765625 964.203125 L 615.375 952.679688 L 606.957031 941.179688 L 598.511719 929.699219 L 590.042969 918.234375 L 581.550781 906.789062 L 579.9375 904.613281 L 577.5625 906.113281 L 569.859375 910.992188 L 562.164062 915.875 L 554.472656 920.765625 L 549.445312 923.972656 L 543.410156 916.527344 L 535.429688 906.703125 L 527.429688 896.890625 L 519.417969 887.089844 L 511.394531 877.304688 L 503.359375 867.527344 L 495.3125 857.753906 L 487.253906 847.992188 L 483.808594 843.820312 L 480.675781 848.246094 L 473.011719 859.066406 L 465.367188 869.898438 L 457.730469 880.734375 L 450.109375 891.585938 L 442.5 902.441406 L 434.90625 913.308594 L 427.328125 924.1875 L 422.6875 930.863281 L 418.894531 925.894531 L 411.929688 916.8125 L 404.953125 907.738281 L 397.96875 898.667969 L 395.570312 895.558594 L 393.007812 898.410156 L 382.011719 910.667969 L 371.042969 922.949219 L 360.101562 935.25 L 354.640625 941.414062 L 349.191406 947.585938 L 343.746094 953.765625 L 338.3125 959.949219 L 332.886719 966.140625 L 327.46875 972.347656 L 322.066406 978.5625 L 316.675781 984.789062 L 311.300781 991.03125 L 308.621094 994.15625 L 305.949219 997.292969 L 308.867188 994.386719 L 311.777344 991.472656 L 317.582031 985.628906 L 323.371094 979.769531 L 329.144531 973.902344 L 334.90625 968.019531 L 340.660156 962.125 L 346.40625 956.230469 L 352.140625 950.320312 L 357.867188 944.402344 L 363.585938 938.480469 L 375 926.617188 L 386.390625 914.726562 L 395.046875 905.648438 L 399.53125 911.808594 L 406.285156 921.050781 L 413.046875 930.285156 L 419.824219 939.511719 L 422.863281 943.652344 L 425.90625 939.429688 L 433.644531 928.664062 L 441.375 917.890625 L 449.085938 907.109375 L 456.785156 896.3125 L 464.46875 885.511719 L 472.144531 874.695312 L 479.804688 863.875 L 484.335938 857.457031 L 488.972656 863.023438 L 497.082031 872.738281 L 505.203125 882.449219 L 513.339844 892.144531 L 521.484375 901.832031 L 529.648438 911.507812 L 537.820312 921.171875 L 546.007812 930.824219 L 548.054688 933.234375 L 550.609375 931.515625 L 558.167969 926.425781 L 565.726562 921.320312 L 573.277344 916.214844 L 578.585938 912.613281 L 585.71875 921.566406 L 594.625 932.691406 L 603.558594 943.796875 L 612.515625 954.882812 L 621.5 965.949219 L 626.003906 971.472656 L 630.515625 976.988281 L 635.042969 982.496094 L 639.574219 987.996094 L 644.128906 993.484375 C 645.644531 995.3125 647.167969 997.140625 648.695312 998.960938 C 647.328125 997.015625 645.953125 995.074219 644.574219 993.136719 " fill-opacity="1" fill-rule="nonzero"/></g><g clip-path="url(#bc3afefee4)"><path fill="#162746" d="M 644.953125 994.921875 L 641.199219 990.894531 L 633.6875 982.84375 L 626.160156 974.808594 L 618.621094 966.785156 L 603.519531 950.765625 L 588.386719 934.769531 L 586.558594 932.839844 L 585.652344 935.390625 L 580.433594 950.105469 L 570.582031 928.304688 L 569.742188 926.441406 L 567.773438 927.136719 L 546.269531 934.71875 L 529.617188 920.976562 L 511.875 906.375 L 507.457031 902.742188 L 507.207031 908.5 L 506.367188 928.074219 L 503.304688 921.574219 L 494.949219 903.886719 L 491.269531 896.101562 L 488.949219 904.414062 L 484.398438 920.734375 L 483.230469 912.78125 L 479.777344 889.464844 L 478.734375 882.40625 L 474.007812 887.742188 L 460.929688 902.511719 L 447.863281 917.292969 L 434.8125 932.085938 L 423.695312 944.707031 L 411.378906 935.464844 L 405.859375 931.320312 L 406.457031 938.167969 L 408.230469 958.480469 L 408.476562 961.269531 L 406.574219 956.863281 L 397.65625 936.289062 L 395.070312 930.316406 L 393.039062 936.449219 L 387.953125 951.824219 L 386.882812 955.066406 L 386.835938 951.242188 L 386.617188 934.589844 L 386.566406 930.710938 L 383.753906 933.304688 L 372.910156 943.289062 L 362.082031 953.285156 L 351.265625 963.296875 L 343.375 970.621094 L 345.429688 966.292969 L 349.195312 958.351562 L 352.949219 950.398438 L 356.6875 942.441406 L 352.570312 950.207031 L 348.464844 957.984375 L 344.375 965.765625 L 340.289062 973.550781 L 338.429688 977.097656 L 341.484375 974.464844 L 352.644531 964.835938 L 363.789062 955.195312 L 374.921875 945.539062 L 383.128906 938.40625 L 382.960938 951.242188 L 382.761719 967.898438 L 382.605469 980.769531 L 386.921875 968.589844 L 392.328125 953.324219 L 395.558594 944.171875 L 401.65625 958.945312 L 410.238281 979.664062 L 417.015625 996.027344 L 415.679688 978.324219 L 414.144531 957.996094 L 413.113281 944.535156 L 422.226562 951.503906 L 424.539062 953.269531 L 426.492188 951.082031 L 439.632812 936.371094 L 452.761719 921.644531 L 465.875 906.910156 L 474.246094 897.484375 L 476.65625 913.757812 L 480.136719 937.070312 L 482.445312 952.539062 L 486.570312 937.464844 L 492.878906 914.414062 L 497.628906 924.285156 L 506.132812 941.898438 L 511.550781 953.128906 L 511.9375 940.695312 L 512.757812 914.417969 L 526.222656 925.171875 L 544.199219 939.488281 L 545.320312 940.382812 L 546.625 939.894531 L 567.402344 932.09375 L 578.914062 956.050781 L 580.996094 960.382812 L 582.464844 955.855469 L 587.945312 938.972656 L 601.644531 952.59375 L 617.285156 968.089844 L 625.117188 975.828125 L 632.960938 983.554688 L 640.816406 991.265625 L 644.753906 995.117188 L 648.695312 998.960938 L 644.953125 994.921875 " fill-opacity="1" fill-rule="nonzero"/></g><path fill="#162746" d="M 926.46875 933.710938 C 921.421875 933.664062 916.664062 934.476562 911.972656 935.75 C 909.941406 936.308594 908.636719 935.820312 908.230469 934.34375 C 907.8125 932.820312 908.601562 931.699219 910.621094 931.105469 C 921.304688 927.972656 931.984375 928.089844 942.652344 931.164062 C 944.300781 931.640625 945.222656 932.914062 944.886719 934.199219 C 944.503906 935.640625 943.117188 936.332031 941.371094 935.867188 C 936.433594 934.546875 931.445312 933.546875 926.46875 933.710938 " fill-opacity="1" fill-rule="nonzero"/><path fill="#162746" d="M 953.105469 925.753906 C 946.730469 922.632812 939.890625 921.359375 932.878906 920.789062 C 932.605469 920.777344 924.28125 920.261719 916.351562 921.191406 C 910.394531 921.953125 904.605469 923.3125 899.25 926.148438 C 897.371094 927.148438 896.820312 928.421875 897.5625 929.792969 C 898.304688 931.175781 899.644531 931.402344 901.507812 930.4375 C 904.285156 928.996094 907.226562 928.007812 910.25 927.257812 C 913.851562 926.375 917.5 925.851562 921.183594 925.601562 C 925.800781 925.125 927.675781 925.125 934.027344 925.753906 C 939.863281 926.375 945.582031 927.496094 950.902344 930.101562 C 953.511719 931.378906 954.765625 931.355469 955.570312 929.902344 C 956.40625 928.375 955.617188 926.992188 953.105469 925.753906 " fill-opacity="1" fill-rule="nonzero"/><g clip-path="url(#7c9511ce2e)"><path fill="#162746" d="M 865.175781 992.785156 C 866.046875 984.734375 869.5625 978.132812 875.507812 972.808594 C 879.679688 969.066406 890.984375 959.480469 895.21875 955.808594 C 895.289062 955.75 895.347656 955.667969 895.421875 955.605469 C 896.761719 956.511719 898.125 957.371094 899.558594 958.191406 C 900.132812 958.515625 900.695312 958.65625 901.210938 958.644531 C 901.925781 959.050781 902.632812 959.453125 903.375 959.835938 C 905.277344 960.800781 907.191406 961.636719 909.117188 962.375 C 909.511719 962.71875 910.058594 963.015625 910.765625 963.242188 C 915.96875 964.921875 921.085938 965.695312 926.132812 965.660156 C 931.183594 965.695312 936.300781 964.921875 941.503906 963.242188 C 942.210938 963.015625 942.757812 962.71875 943.152344 962.375 C 945.078125 961.636719 946.992188 960.800781 948.894531 959.835938 C 949.636719 959.453125 950.34375 959.050781 951.058594 958.644531 C 951.574219 958.65625 952.136719 958.515625 952.710938 958.191406 C 954.144531 957.371094 955.507812 956.511719 956.847656 955.605469 C 956.921875 955.667969 956.980469 955.75 957.050781 955.808594 C 961.285156 959.480469 972.589844 969.066406 976.761719 972.808594 C 982.707031 978.132812 986.222656 984.734375 987.09375 992.785156 C 967.671875 992.785156 884.597656 992.785156 865.175781 992.785156 Z M 889.585938 942.980469 C 888.449219 941.550781 888.183594 940.15625 888.414062 938.417969 C 889.320312 931.355469 889.789062 924.253906 890.207031 917.15625 C 891.292969 898.75 891.652344 880.320312 891.558594 861.894531 C 891.546875 861.40625 891.402344 860.882812 891.738281 860.441406 C 892.371094 860.320312 892.8125 860.761719 893.328125 860.988281 C 893.699219 861.144531 894.070312 861.273438 894.441406 861.40625 C 894.8125 861.808594 895.335938 862.085938 896.007812 862.25 C 898.613281 862.90625 901.199219 863.238281 903.769531 863.25 C 906.304688 863.300781 908.863281 863 911.460938 862.308594 C 912.34375 862.070312 913.003906 861.726562 913.433594 861.308594 C 913.660156 861.214844 913.886719 861.132812 914.113281 861.035156 C 914.855469 860.691406 915.597656 860.378906 916.613281 859.929688 C 916.613281 867.8125 916.601562 875.378906 916.625 882.929688 C 916.625 883.703125 916.21875 884.21875 915.800781 884.777344 C 912.238281 889.578125 908.722656 894.402344 905.121094 899.167969 C 902.730469 902.347656 901.570312 905.851562 901.746094 909.828125 C 901.867188 912.140625 902.5625 912.9375 904.859375 912.949219 C 905.179688 912.949219 905.503906 912.949219 905.828125 912.949219 C 905.863281 912.949219 905.886719 912.960938 905.910156 912.960938 C 909.101562 912.972656 912.296875 912.960938 915.488281 912.960938 C 917.273438 912.960938 928.144531 912.984375 932.164062 912.949219 C 933.695312 912.972656 935.238281 912.960938 936.777344 912.960938 C 939.972656 912.960938 943.164062 912.972656 946.359375 912.960938 C 946.382812 912.960938 946.40625 912.949219 946.441406 912.949219 C 946.765625 912.949219 947.089844 912.949219 947.410156 912.949219 C 949.707031 912.9375 950.402344 912.140625 950.519531 909.828125 C 950.699219 905.851562 949.539062 902.347656 947.148438 899.167969 C 943.546875 894.402344 940.03125 889.578125 936.46875 884.777344 C 936.050781 884.21875 935.644531 883.703125 935.644531 882.929688 C 935.667969 875.378906 935.65625 867.8125 935.65625 859.929688 C 936.671875 860.378906 937.414062 860.691406 938.15625 861.035156 C 938.382812 861.132812 938.609375 861.214844 938.835938 861.308594 C 939.265625 861.726562 939.925781 862.070312 940.808594 862.308594 C 943.40625 863 945.964844 863.300781 948.5 863.25 C 951.070312 863.238281 953.65625 862.90625 956.261719 862.25 C 956.933594 862.085938 957.457031 861.808594 957.828125 861.40625 C 958.199219 861.273438 958.570312 861.144531 958.941406 860.988281 C 959.457031 860.761719 959.898438 860.320312 960.53125 860.441406 C 960.867188 860.882812 960.722656 861.40625 960.710938 861.894531 C 960.617188 880.320312 960.976562 898.75 962.0625 917.15625 C 962.480469 924.253906 962.949219 931.355469 963.855469 938.417969 C 964.085938 940.15625 963.820312 941.550781 962.683594 942.980469 C 957.027344 950.042969 949.625 954.582031 941.324219 957.835938 C 936.707031 959.632812 932.054688 960.597656 927.390625 960.777344 C 926.972656 960.789062 926.554688 960.8125 926.132812 960.800781 C 925.714844 960.8125 925.296875 960.789062 924.878906 960.777344 C 920.214844 960.597656 915.5625 959.632812 910.945312 957.835938 C 902.644531 954.582031 895.242188 950.042969 889.585938 942.980469 Z M 935.523438 850.289062 C 935.714844 845.8125 935.703125 841.59375 935.761719 840.570312 C 944.351562 841.546875 952.675781 843.535156 960.84375 846.46875 C 960.84375 848.671875 960.785156 850.816406 960.867188 852.972656 C 960.902344 854.066406 960.160156 854.566406 959.492188 855.089844 C 956.992188 857.019531 954.039062 857.820312 950.976562 858.164062 C 950.175781 858.261719 949.386719 858.332031 948.582031 858.355469 C 945.59375 858.367188 942.652344 857.808594 939.769531 856.425781 C 937.390625 855.28125 935.03125 854.351562 935.535156 850.898438 C 935.570312 850.683594 935.558594 850.480469 935.523438 850.289062 Z M 891.425781 846.46875 C 899.59375 843.535156 907.917969 841.546875 916.507812 840.570312 C 916.566406 841.59375 916.554688 845.8125 916.746094 850.289062 C 916.710938 850.480469 916.699219 850.683594 916.734375 850.898438 C 917.238281 854.351562 914.878906 855.28125 912.5 856.425781 C 909.617188 857.808594 906.675781 858.367188 903.683594 858.355469 C 902.882812 858.332031 902.09375 858.261719 901.292969 858.164062 C 898.230469 857.820312 895.277344 857.019531 892.777344 855.089844 C 892.109375 854.566406 891.367188 854.066406 891.402344 852.972656 C 891.484375 850.816406 891.425781 848.671875 891.425781 846.46875 Z M 933.394531 908.113281 C 933.273438 908.113281 933.15625 908.125 933.035156 908.136719 C 932.726562 908.136719 932.425781 908.148438 932.125 908.148438 C 932.089844 908.148438 932.054688 908.148438 932.03125 908.148438 C 931.996094 908.148438 931.972656 908.148438 931.933594 908.148438 C 931.578125 908.148438 931.207031 908.125 930.835938 908.136719 C 928.851562 908.125 919.042969 908.113281 918.875 908.113281 C 915.488281 908.089844 912.105469 908.113281 908.734375 908.089844 C 908.339844 908.089844 907.929688 908.148438 907.511719 908.101562 C 907.574219 905.8125 908.433594 904.027344 909.652344 902.382812 C 913.410156 897.320312 917.117188 892.234375 920.921875 887.21875 C 921.9375 885.882812 922.390625 884.539062 922.390625 882.847656 C 922.34375 869.316406 922.355469 855.769531 922.355469 842.238281 C 922.355469 841.558594 922.355469 840.878906 922.355469 840.105469 C 924.949219 840.105469 927.402344 840.105469 929.914062 840.105469 C 929.914062 840.878906 929.914062 841.558594 929.914062 842.238281 C 929.914062 855.769531 929.925781 869.316406 929.878906 882.847656 C 929.878906 884.539062 930.332031 885.882812 931.347656 887.21875 C 935.152344 892.234375 938.859375 897.320312 942.617188 902.382812 C 943.835938 904.027344 944.695312 905.8125 944.757812 908.101562 C 944.339844 908.148438 943.929688 908.089844 943.535156 908.089844 C 940.164062 908.113281 936.777344 908.089844 933.394531 908.113281 Z M 885.960938 839.796875 C 885.949219 836.117188 885.996094 832.421875 885.949219 828.730469 C 885.875 823.308594 888.019531 819.046875 892.515625 815.9375 C 902.035156 810.957031 915.488281 808.71875 926.132812 807.742188 C 936.777344 808.71875 950.234375 810.957031 959.753906 815.9375 C 964.25 819.046875 966.390625 823.308594 966.320312 828.730469 C 966.273438 832.421875 966.320312 836.117188 966.308594 839.796875 C 966.296875 841.273438 965.890625 842.117188 965.042969 842.332031 C 964.695312 842.296875 964.3125 842.226562 963.867188 842.082031 C 961.992188 841.488281 960.136719 840.820312 958.257812 840.214844 C 957.671875 840.023438 957.136719 839.949219 956.65625 839.988281 C 951.730469 838.496094 946.71875 837.332031 941.636719 836.484375 C 941.3125 836.316406 940.941406 836.199219 940.523438 836.140625 C 936 835.484375 931.480469 835.125 926.949219 835.101562 C 926.671875 835.089844 926.410156 835.089844 926.132812 835.089844 C 925.859375 835.089844 925.597656 835.089844 925.320312 835.101562 C 920.789062 835.125 916.269531 835.484375 911.746094 836.140625 C 911.328125 836.199219 910.957031 836.316406 910.632812 836.484375 C 905.550781 837.332031 900.539062 838.496094 895.613281 839.988281 C 895.132812 839.949219 894.597656 840.023438 894.007812 840.214844 C 892.132812 840.820312 890.277344 841.488281 888.402344 842.082031 C 887.957031 842.226562 887.574219 842.296875 887.226562 842.332031 C 886.378906 842.117188 885.972656 841.273438 885.960938 839.796875 Z M 1007.871094 995.25 C 1007.859375 995.023438 1007.8125 994.785156 1007.726562 994.523438 C 1007.164062 992.988281 1005.8125 992.878906 1004.402344 992.894531 C 1004.089844 992.894531 1003.78125 992.894531 1003.46875 992.894531 C 1003.445312 992.894531 1003.421875 992.894531 1003.398438 992.894531 C 1001.675781 992.90625 999.941406 992.90625 998.207031 992.90625 C 996.4375 992.90625 994.679688 992.90625 992.882812 992.90625 C 992.179688 986.496094 990.21875 980.660156 986.472656 975.523438 C 981.652344 968.925781 975.050781 964.136719 968.941406 958.859375 C 968.472656 958.453125 967.949219 958.289062 967.421875 958.324219 C 964.835938 956.109375 962.457031 954.058594 960.796875 952.628906 C 963.832031 950.105469 966.546875 947.234375 968.832031 943.863281 C 969.667969 942.609375 969.898438 941.394531 969.742188 939.929688 C 969.214844 935.320312 968.726562 930.710938 968.378906 926.089844 C 967.445312 913.546875 966.871094 900.976562 966.597656 888.398438 C 966.296875 875.117188 966.355469 861.832031 966.558594 848.550781 C 966.570312 847.742188 966.65625 847.167969 967.613281 846.824219 C 970.664062 845.691406 971.964844 843.296875 972.074219 840.164062 C 972.097656 839.414062 972.085938 838.652344 972.085938 837.734375 C 973.9375 839.390625 974.667969 841.488281 974.621094 843.941406 C 974.527344 849.601562 974.394531 855.257812 974.296875 860.90625 C 974.296875 861.046875 974.308594 861.167969 974.308594 861.296875 C 974.285156 866.015625 974.382812 872.007812 974.5 875.820312 C 974.5 876.035156 974.5 876.257812 974.5 876.472656 C 974.527344 876.878906 974.550781 877.296875 974.574219 877.699219 C 974.597656 878.046875 974.609375 878.367188 974.621094 878.617188 C 974.632812 878.640625 974.632812 878.652344 974.632812 878.664062 C 975.304688 889.996094 976.378906 901.261719 978.269531 912.449219 C 979.058594 917.082031 977.300781 920.609375 973.089844 922.835938 C 971.296875 923.789062 970.664062 925.125 971.378906 926.480469 C 971.894531 927.445312 972.804688 927.851562 973.964844 927.648438 C 974.644531 927.734375 975.46875 927.542969 976.414062 927.066406 C 982.085938 924.183594 985.050781 918.035156 983.890625 911.542969 C 982.492188 903.789062 981.605469 895.960938 981.007812 888.113281 C 979.929688 873.722656 979.679688 859.296875 980.265625 844.871094 C 980.480469 839.5 978.53125 835.328125 974.011719 832.457031 C 972.46875 831.480469 972.039062 830.351562 972.039062 828.574219 C 972.015625 821.011719 968.796875 815.089844 962.160156 811.277344 C 951.644531 805.226562 940.234375 802.546875 928.144531 802.664062 C 927.511719 802.664062 926.828125 802.691406 926.132812 802.714844 C 925.441406 802.691406 924.757812 802.664062 924.125 802.664062 C 912.035156 802.546875 900.625 805.226562 890.109375 811.277344 C 883.472656 815.089844 880.253906 821.011719 880.230469 828.574219 C 880.230469 830.351562 879.800781 831.480469 878.257812 832.457031 C 873.738281 835.328125 871.789062 839.5 872.003906 844.871094 C 872.589844 859.296875 872.339844 873.722656 871.261719 888.113281 C 870.664062 895.960938 869.777344 903.789062 868.378906 911.542969 C 867.21875 918.035156 870.183594 924.183594 875.855469 927.066406 C 876.800781 927.542969 877.625 927.734375 878.304688 927.648438 C 879.464844 927.851562 880.375 927.445312 880.890625 926.480469 C 881.605469 925.125 880.972656 923.789062 879.179688 922.835938 C 874.96875 920.609375 873.210938 917.082031 874 912.449219 C 875.890625 901.261719 876.964844 889.996094 877.636719 878.664062 C 877.636719 878.652344 877.636719 878.640625 877.648438 878.617188 C 877.660156 878.367188 877.671875 878.046875 877.695312 877.699219 C 877.71875 877.296875 877.742188 876.878906 877.769531 876.472656 C 877.769531 876.257812 877.769531 876.035156 877.769531 875.820312 C 877.886719 872.007812 877.984375 866.015625 877.960938 861.296875 C 877.960938 861.167969 877.972656 861.046875 877.972656 860.90625 C 877.875 855.257812 877.742188 849.601562 877.648438 843.941406 C 877.601562 841.488281 878.328125 839.390625 880.183594 837.734375 C 880.183594 838.652344 880.171875 839.414062 880.195312 840.164062 C 880.304688 843.296875 881.605469 845.691406 884.65625 846.824219 C 885.613281 847.167969 885.699219 847.742188 885.710938 848.550781 C 885.914062 861.832031 885.972656 875.117188 885.671875 888.398438 C 885.398438 900.976562 884.824219 913.546875 883.890625 926.089844 C 883.542969 930.710938 883.054688 935.320312 882.527344 939.929688 C 882.371094 941.394531 882.601562 942.609375 883.4375 943.863281 C 885.722656 947.234375 888.4375 950.105469 891.472656 952.628906 C 889.8125 954.058594 887.433594 956.109375 884.847656 958.324219 C 884.320312 958.289062 883.796875 958.453125 883.328125 958.859375 C 877.21875 964.136719 870.617188 968.925781 865.796875 975.523438 C 862.050781 980.660156 860.089844 986.496094 859.386719 992.90625 C 857.589844 992.90625 855.832031 992.90625 854.0625 992.90625 C 852.328125 992.90625 850.59375 992.90625 848.871094 992.894531 C 848.847656 992.894531 848.824219 992.894531 848.800781 992.894531 C 848.488281 992.894531 848.179688 992.894531 847.867188 992.894531 C 846.457031 992.878906 845.105469 992.988281 844.542969 994.523438 C 844.457031 994.785156 844.410156 995.023438 844.398438 995.25 C 844.386719 995.3125 844.386719 995.382812 844.386719 995.441406 C 844.398438 996.453125 845.128906 997.203125 846.027344 997.835938 C 846.945312 997.835938 847.84375 997.835938 848.765625 997.835938 C 900.933594 997.835938 951.394531 997.835938 1003.503906 997.835938 C 1004.425781 997.835938 1005.324219 997.835938 1006.242188 997.835938 C 1007.140625 997.203125 1007.871094 996.453125 1007.882812 995.441406 C 1007.882812 995.382812 1007.882812 995.3125 1007.871094 995.25 " fill-opacity="1" fill-rule="nonzero"/></g></svg>