<svg id="svg" xmlns="http://www.w3.org/2000/svg" xmlns:xlink="http://www.w3.org/1999/xlink" width="400" height="400" viewBox="0, 0, 400,400"><g id="svgg"><path id="path0" d="M16.535 167.267 C 16.536 216.967,16.595 226.390,16.920 228.533 C 19.156 243.323,31.534 255.380,46.492 257.338 C 47.964 257.531,59.605 257.597,82.533 257.543 L 116.400 257.463 119.174 256.706 C 127.425 254.453,134.936 249.291,139.311 242.867 C 140.585 240.997,140.419 240.982,141.836 243.085 C 146.476 249.969,155.525 255.689,164.133 257.182 C 167.731 257.806,232.051 257.811,235.632 257.188 C 248.708 254.912,259.659 245.094,263.210 232.461 C 264.385 228.280,264.530 226.153,264.532 213.066 L 264.533 200.666 234.000 170.134 L 203.467 139.602 199.803 143.266 L 196.139 146.931 225.291 176.094 L 254.443 205.258 254.336 215.896 C 254.238 225.679,254.184 226.696,253.670 228.554 C 251.396 236.781,245.954 242.932,238.349 245.869 C 234.087 247.515,234.823 247.486,198.913 247.405 L 166.267 247.331 164.214 246.746 C 153.859 243.800,146.503 235.061,145.685 224.733 L 145.521 222.667 140.525 222.667 L 135.529 222.667 135.347 224.467 C 134.161 236.217,125.659 245.424,114.363 247.192 C 110.200 247.844,47.724 247.440,45.280 246.745 C 36.514 244.255,30.127 237.936,27.415 229.067 L 26.803 227.067 26.730 173.000 L 26.658 118.933 51.329 118.933 L 76.000 118.933 76.000 170.800 L 76.000 222.667 81.067 222.667 L 86.133 222.667 86.133 170.800 L 86.133 118.933 110.933 118.933 L 135.733 118.933 135.733 113.733 L 135.733 108.533 76.133 108.533 L 16.533 108.533 16.535 167.267 M166.800 108.827 C 153.436 110.221,141.435 119.985,137.070 133.014 C 135.576 137.473,135.467 138.831,135.467 152.901 L 135.467 165.732 165.931 196.198 L 196.396 226.664 199.931 223.135 C 201.876 221.195,203.467 219.486,203.467 219.337 C 203.467 219.188,190.447 206.046,174.533 190.133 L 145.600 161.201 145.602 151.334 C 145.604 141.182,145.747 139.247,146.713 136.267 C 149.517 127.618,156.662 121.167,165.467 119.335 C 167.947 118.819,231.247 118.707,233.957 119.214 C 240.280 120.396,246.226 124.226,249.826 129.433 C 250.572 130.512,251.106 131.471,251.013 131.564 C 250.921 131.657,250.973 131.733,251.131 131.733 C 251.912 131.733,253.978 138.269,254.292 141.732 L 254.474 143.733 256.662 143.733 C 257.866 143.733,260.113 143.656,261.657 143.562 L 264.464 143.390 264.638 141.515 C 265.647 130.661,273.768 121.518,284.322 119.355 C 287.431 118.717,350.436 118.717,353.545 119.355 C 362.620 121.215,369.910 128.156,372.567 137.467 L 373.175 139.600 373.263 168.733 L 373.351 197.867 348.676 197.867 L 324.000 197.867 324.000 170.667 L 324.000 143.467 318.933 143.467 L 313.867 143.467 313.867 195.467 L 313.867 247.467 289.067 247.467 L 264.267 247.467 264.267 252.533 L 264.267 257.600 294.133 257.600 L 324.000 257.600 324.000 232.800 L 324.000 208.000 353.741 208.000 L 383.482 208.000 383.401 173.000 L 383.321 138.000 382.595 135.254 C 378.619 120.213,366.621 110.037,351.396 108.791 C 349.033 108.598,337.429 108.534,316.267 108.598 L 284.667 108.693 282.000 109.299 C 273.392 111.253,265.294 116.602,260.761 123.328 C 259.408 125.335,259.459 125.311,258.826 124.239 C 254.075 116.196,243.318 109.786,232.933 108.809 C 229.403 108.478,169.998 108.493,166.800 108.827 M57.600 268.456 C 56.359 268.912,55.826 270.678,56.531 271.996 C 57.209 273.263,60.026 273.214,60.933 271.920 C 62.306 269.960,60.008 267.571,57.600 268.456 M124.772 268.550 C 122.771 269.323,123.239 272.498,125.414 272.906 C 127.292 273.258,128.533 272.333,128.533 270.580 C 128.533 268.814,126.680 267.813,124.772 268.550 M141.642 272.248 C 141.723 275.769,141.687 276.189,141.333 275.880 C 138.764 273.637,134.085 274.301,132.417 277.146 C 130.422 280.552,130.629 286.646,132.836 289.452 C 134.611 291.708,139.124 291.942,141.266 289.888 L 141.866 289.313 142.316 290.257 C 142.759 291.186,142.789 291.200,144.414 291.200 L 146.064 291.200 146.229 290.200 C 146.320 289.650,146.395 284.490,146.397 278.733 L 146.400 268.267 143.976 268.267 L 141.551 268.267 141.642 272.248 M176.589 272.271 C 176.707 275.921,176.680 276.242,176.292 275.903 C 173.041 273.061,167.814 274.704,166.548 278.966 C 164.022 287.473,170.167 294.569,176.125 290.024 L 177.026 289.337 177.334 290.268 L 177.641 291.200 179.487 291.200 L 181.333 291.200 181.333 279.733 L 181.333 268.267 178.897 268.267 L 176.461 268.267 176.589 272.271 M218.133 272.133 C 218.133 274.260,218.068 276.000,217.989 276.000 C 217.910 276.000,217.520 275.764,217.123 275.476 C 213.823 273.083,209.276 274.918,207.992 279.161 C 205.410 287.689,212.111 294.985,217.775 289.813 L 218.349 289.288 218.695 290.244 L 219.040 291.200 220.854 291.200 L 222.667 291.200 222.667 279.733 L 222.667 268.267 220.400 268.267 L 218.133 268.267 218.133 272.133 M268.983 268.529 C 267.643 268.947,266.806 270.129,266.294 272.333 C 266.067 273.310,268.625 273.503,268.933 272.533 C 269.262 271.497,269.933 271.436,271.716 272.279 C 274.746 273.712,276.801 273.227,277.894 270.821 C 279.084 268.201,277.501 267.106,275.571 269.213 L 274.704 270.160 273.135 269.368 C 271.328 268.456,270.049 268.197,268.983 268.529 M360.211 279.533 C 360.161 286.827,360.227 290.869,360.400 290.996 C 360.547 291.104,361.597 291.194,362.733 291.196 L 364.800 291.200 364.800 279.733 L 364.800 268.267 362.544 268.267 L 360.289 268.267 360.211 279.533 M254.225 269.597 C 247.240 271.067,247.235 278.447,254.217 282.016 C 260.899 285.431,258.480 288.946,251.200 286.400 C 249.953 285.964,248.903 285.606,248.867 285.604 C 248.268 285.572,248.906 290.188,249.533 290.433 C 256.261 293.061,262.766 290.422,262.764 285.067 C 262.762 281.878,261.808 280.766,256.823 278.145 C 253.997 276.660,253.620 276.218,253.974 274.808 C 254.319 273.435,256.572 273.158,259.467 274.133 C 260.388 274.444,261.227 274.601,261.330 274.482 C 261.740 274.010,262.706 271.212,262.547 270.955 C 261.998 270.068,256.361 269.148,254.225 269.597 M16.533 277.285 C 16.533 289.111,17.862 291.260,25.200 291.303 C 32.461 291.345,33.955 289.029,34.085 277.533 L 34.175 269.600 31.769 269.600 L 29.364 269.600 29.282 277.133 C 29.180 286.494,28.880 287.262,25.321 287.262 C 21.720 287.262,21.483 286.662,21.388 277.314 L 21.310 269.600 18.922 269.600 L 16.533 269.600 16.533 277.285 M307.200 280.438 L 307.200 291.200 309.467 291.200 L 311.733 291.200 311.733 287.498 L 311.733 283.796 314.067 283.602 C 319.113 283.183,321.479 281.210,321.805 277.151 C 322.241 271.714,319.628 269.798,311.667 269.720 L 307.200 269.676 307.200 280.438 M315.945 274.312 C 318.416 275.857,316.930 279.144,313.624 279.447 L 311.733 279.621 311.733 276.761 L 311.733 273.902 312.467 273.795 C 313.577 273.633,315.259 273.883,315.945 274.312 M44.591 274.888 C 43.816 275.165,42.907 275.649,42.571 275.965 C 41.923 276.573,41.600 276.484,41.600 275.698 C 41.600 275.004,40.777 274.667,39.084 274.667 L 37.600 274.667 37.600 282.933 L 37.600 291.200 39.976 291.200 L 42.352 291.200 42.446 285.933 C 42.561 279.546,42.729 279.072,45.148 278.293 C 45.927 278.043,47.437 278.826,47.770 279.654 C 47.960 280.126,48.063 282.381,48.052 285.800 L 48.034 291.200 50.417 291.200 L 52.800 291.200 52.800 285.636 C 52.800 279.602,52.576 277.716,51.714 276.506 C 50.444 274.722,47.150 273.974,44.591 274.888 M86.133 274.571 C 81.779 275.386,79.867 277.938,79.867 282.933 C 79.867 289.687,85.092 293.002,92.333 290.842 L 93.867 290.385 93.867 288.526 C 93.867 287.503,93.803 286.667,93.725 286.667 C 93.647 286.667,92.852 286.913,91.958 287.214 C 88.830 288.268,86.299 287.877,85.143 286.161 C 83.873 284.274,83.890 284.267,89.768 284.267 L 95.002 284.267 94.817 282.067 C 94.350 276.506,91.043 273.651,86.133 274.571 M104.733 274.780 C 103.551 275.202,101.901 276.408,101.654 277.028 C 101.540 277.317,101.383 277.013,101.194 276.133 L 100.907 274.800 99.116 274.721 L 97.326 274.642 97.396 282.854 L 97.467 291.067 99.641 291.144 L 101.815 291.221 101.908 286.296 C 102.025 280.030,102.683 278.935,106.333 278.934 L 107.733 278.933 107.736 278.067 C 107.737 277.590,107.814 276.570,107.906 275.800 L 108.074 274.400 106.904 274.412 C 106.260 274.418,105.283 274.584,104.733 274.780 M113.098 274.674 C 110.097 275.299,108.644 277.032,108.897 279.685 C 109.102 281.842,109.844 282.608,113.425 284.363 C 116.653 285.944,116.995 286.270,116.365 287.169 C 115.831 287.932,113.238 287.947,111.067 287.200 C 108.732 286.397,108.765 286.376,108.855 288.589 L 108.933 290.512 110.133 290.885 C 120.029 293.964,126.071 284.994,116.768 281.035 C 111.793 278.918,113.073 276.880,118.257 278.663 C 119.117 278.959,119.841 279.171,119.866 279.134 C 120.291 278.493,121.082 275.911,120.904 275.742 C 120.048 274.925,115.125 274.252,113.098 274.674 M154.337 274.661 C 152.548 274.983,150.400 275.730,150.400 276.030 C 150.400 276.233,151.638 278.878,151.851 279.130 C 151.880 279.165,152.583 278.955,153.412 278.663 C 156.382 277.620,158.251 278.025,158.652 279.801 C 158.910 280.945,158.905 280.947,155.062 281.157 C 150.774 281.392,148.807 283.063,148.801 286.475 C 148.795 291.051,154.767 293.138,158.497 289.863 L 159.386 289.082 159.736 290.141 L 160.085 291.200 161.776 291.200 L 163.467 291.200 163.465 285.267 C 163.463 278.557,163.305 277.642,161.898 276.235 C 160.470 274.807,157.248 274.136,154.337 274.661 M189.253 274.764 C 182.495 276.668,181.934 288.160,188.475 290.692 C 190.477 291.466,194.069 291.524,196.467 290.819 L 198.133 290.330 198.133 288.498 C 198.133 287.491,198.043 286.670,197.933 286.673 C 197.823 286.677,197.013 286.923,196.133 287.221 C 194.080 287.916,191.532 287.960,190.446 287.318 C 189.641 286.842,189.309 286.371,188.812 285.000 L 188.547 284.267 193.740 284.267 L 198.933 284.267 198.933 282.315 C 198.933 276.505,194.725 273.222,189.253 274.764 M231.129 274.675 C 227.205 275.660,225.483 278.174,225.473 282.933 C 225.458 289.689,230.676 293.000,237.933 290.841 L 239.467 290.385 239.467 288.497 C 239.467 286.909,239.402 286.635,239.057 286.767 C 235.009 288.320,232.052 288.104,230.743 286.161 C 229.499 284.312,229.590 284.267,234.500 284.267 C 236.902 284.267,239.257 284.189,239.733 284.093 L 240.600 283.920 240.420 281.893 C 239.928 276.348,236.151 273.413,231.129 274.675 M270.400 274.561 C 268.939 274.821,267.332 275.249,266.480 275.605 L 265.582 275.980 266.406 277.613 C 267.058 278.904,267.325 279.206,267.682 279.057 C 271.368 277.522,274.133 277.924,274.133 279.995 C 274.133 280.930,273.978 280.982,270.667 281.152 C 266.230 281.379,264.260 283.014,264.271 286.458 C 264.285 290.982,269.740 293.034,273.705 290.008 L 274.865 289.122 275.177 290.161 L 275.488 291.200 277.072 291.200 C 279.082 291.200,279.004 291.505,278.888 284.091 C 278.788 277.697,278.695 277.277,277.068 275.909 C 275.848 274.882,272.454 274.196,270.400 274.561 M287.239 274.671 C 280.059 276.179,279.175 287.625,286.000 290.708 C 290.196 292.604,295.307 290.620,296.731 286.542 C 299.193 279.496,294.171 273.216,287.239 274.671 M328.978 274.679 C 327.374 274.948,325.067 275.764,325.067 276.062 C 325.067 276.245,326.327 278.906,326.522 279.134 C 326.553 279.171,327.278 278.961,328.131 278.667 C 331.023 277.673,332.804 277.997,333.339 279.616 C 333.753 280.871,333.754 280.870,330.594 281.092 C 325.527 281.446,323.476 282.965,323.468 286.369 C 323.457 291.001,329.436 293.136,333.189 289.841 L 334.103 289.038 334.427 290.119 L 334.751 291.200 336.442 291.200 L 338.133 291.200 338.113 285.000 C 338.093 278.787,337.981 277.894,337.060 276.617 C 335.844 274.930,332.402 274.104,328.978 274.679 M373.467 274.660 C 368.739 275.674,366.234 280.772,367.885 286.023 C 370.079 292.996,380.741 293.249,382.782 286.377 C 384.901 279.242,380.124 273.233,373.467 274.660 M56.435 275.267 C 56.346 275.597,56.272 279.317,56.270 283.533 L 56.267 291.200 58.667 291.200 L 61.067 291.200 61.067 282.933 L 61.067 274.667 58.831 274.667 C 56.738 274.667,56.585 274.705,56.435 275.267 M62.400 274.898 C 62.400 275.025,63.585 278.235,65.034 282.031 C 66.483 285.827,67.824 289.375,68.014 289.914 C 68.418 291.060,68.761 291.191,71.350 291.196 L 73.233 291.200 76.198 283.400 C 77.829 279.110,79.246 275.385,79.347 275.123 C 79.518 274.682,79.341 274.652,77.033 274.723 L 74.533 274.800 72.830 280.000 C 71.893 282.860,71.072 285.380,71.006 285.600 C 70.940 285.820,70.606 285.040,70.263 283.867 C 69.921 282.693,69.091 280.178,68.420 278.277 C 67.749 276.376,67.200 274.786,67.200 274.743 C 67.200 274.701,66.120 274.667,64.800 274.667 C 63.480 274.667,62.400 274.771,62.400 274.898 M123.733 282.933 L 123.733 291.200 126.000 291.200 L 128.267 291.200 128.267 282.933 L 128.267 274.667 126.000 274.667 L 123.733 274.667 123.733 282.933 M341.607 280.467 C 341.613 286.562,341.805 288.123,342.699 289.379 C 344.366 291.721,349.246 292.052,351.696 289.991 C 352.542 289.279,352.626 289.312,352.902 290.467 C 353.072 291.180,353.128 291.200,354.938 291.200 L 356.800 291.200 356.800 282.933 L 356.800 274.667 354.400 274.667 L 352.000 274.667 352.000 279.677 C 352.000 286.553,350.892 288.615,347.874 287.354 C 346.472 286.768,346.400 286.422,346.400 280.284 L 346.400 274.667 344.000 274.667 L 341.600 274.667 341.607 280.467 M88.659 278.281 C 89.497 278.678,90.678 280.344,90.353 280.669 C 90.172 280.850,84.791 280.880,84.613 280.701 C 84.207 280.296,85.871 278.285,86.800 278.058 C 87.684 277.843,87.754 277.851,88.659 278.281 M193.427 278.620 C 193.885 279.032,194.667 280.315,194.667 280.653 C 194.667 280.734,193.347 280.800,191.733 280.800 C 188.569 280.800,188.398 280.707,189.251 279.459 C 190.314 277.903,192.209 277.522,193.427 278.620 M234.713 278.491 C 235.214 278.803,236.188 280.437,235.988 280.628 C 235.626 280.974,230.133 280.922,230.133 280.573 C 230.133 278.748,233.022 277.435,234.713 278.491 M140.835 279.099 C 142.682 280.770,142.104 286.227,139.969 287.272 C 137.566 288.447,135.867 286.650,135.867 282.933 C 135.867 278.858,138.405 276.899,140.835 279.099 M175.913 279.265 C 177.023 280.389,177.222 284.772,176.233 286.354 C 175.171 288.055,172.230 287.852,171.359 286.017 C 169.163 281.389,172.752 276.067,175.913 279.265 M216.973 278.855 C 218.862 280.078,218.710 286.178,216.765 287.219 C 214.332 288.521,212.245 286.565,212.189 282.932 C 212.132 279.241,214.479 277.241,216.973 278.855 M290.997 278.711 C 292.988 279.732,292.900 286.147,290.880 287.228 C 289.351 288.047,287.211 287.310,286.676 285.782 C 285.020 281.044,287.531 276.935,290.997 278.711 M377.360 279.091 C 379.054 280.623,378.792 285.874,376.962 287.073 C 374.414 288.742,372.424 286.933,372.409 282.933 C 372.394 278.791,374.889 276.855,377.360 279.091 M158.777 285.000 C 158.330 287.476,155.730 288.778,154.128 287.328 C 152.517 285.871,154.338 284.031,157.412 284.010 L 158.958 284.000 158.777 285.000 M274.133 284.783 C 274.133 286.627,272.969 287.806,271.148 287.806 C 269.454 287.806,268.629 286.650,269.354 285.294 C 270.125 283.854,274.133 283.425,274.133 284.783 M333.509 284.994 C 333.093 287.553,329.847 288.905,328.619 287.031 C 327.605 285.484,329.282 284.029,332.102 284.010 L 333.670 284.000 333.509 284.994 " stroke="none" fill="#000000" fill-rule="evenodd"></path></g></svg>